<?xml version="1.0" encoding="UTF-8" standalone="no"?>
<!DOCTYPE svg PUBLIC "-//W3C//DTD SVG 1.1//EN" "http://www.w3.org/Graphics/SVG/1.1/DTD/svg11.dtd">
<svg width="100%" height="100%" viewBox="0 0 349 279" version="1.1" xmlns="http://www.w3.org/2000/svg" xmlns:xlink="http://www.w3.org/1999/xlink" xml:space="preserve" xmlns:serif="http://www.serif.com/" style="fill-rule:evenodd;clip-rule:evenodd;stroke-linejoin:round;stroke-miterlimit:2;">
    <g transform="matrix(1,0,0,1,-951.298737,-1504.4575)">
        <g transform="matrix(4.166667,0,0,4.166667,0,0)">
            <g transform="matrix(1,0,0,1,268.8194,371.6038)">
                <path d="M0,34.788C-3.018,37.862 -7.207,39.27 -11.182,39.345L-23.834,39.585C-23.751,41.528 -23.563,42.88 -23.946,44.523C-25.289,44.876 -27.887,45.322 -28.959,44.315C-30.046,43.293 -29.467,40.861 -29.403,39.527C-32.087,39.274 -34.488,39.844 -37.013,38.897L-37.084,-10.531L-13.354,-10.534C-9.827,-10.534 -6.366,-9.671 -3.509,-7.821C0.033,-5.611 1.409,-2.073 1.387,1.949C1.36,7.012 -0.877,10.814 -6.306,12.503C-2.635,14.009 0.243,14.97 2.024,18.048C5.009,23.206 4.446,30.26 0,34.788M-13.098,9.494C-9.509,9.416 -8.33,5.23 -8.875,2.531C-9.451,-0.324 -12.006,-2.026 -15.195,-2.037L-26.82,-2.075L-26.796,9.787L-13.098,9.494ZM-14.188,31.344C-9.413,31.26 -6.603,28.462 -6.552,24.273C-6.511,20.87 -9.28,17.492 -13.322,17.447L-26.795,17.295L-26.833,31.569L-14.188,31.344Z" style="fill:rgb(128,41,143);fill-rule:nonzero;"/>
            </g>
        </g>
        <g transform="matrix(4.166667,0,0,4.166667,0,0)">
            <g transform="matrix(1,0,0,1,302.5847,385.391)">
                <path d="M0,14.131L8.753,14.177C7.403,20.288 2.688,24.512 -3.472,25.8C-9.879,27.14 -17.104,25.848 -21.546,20.529C-28.076,12.707 -27.627,0.235 -20.179,-6.939C-14.229,-12.669 -4.454,-13.009 2.079,-8.411C7.888,-4.322 9.823,2.692 9.176,9.536L-16.403,9.661C-16.685,13.9 -14.267,17.73 -10.154,18.785C-6.346,19.763 -2.007,18.549 0,14.131M-0.298,3.418C-0.514,-2.237 -4.626,-4.642 -9.246,-4.232C-13.008,-3.898 -16.436,-0.588 -16.191,3.807L-0.298,3.418Z" style="fill:rgb(128,41,143);fill-rule:nonzero;"/>
            </g>
        </g>
        <g transform="matrix(4.166667,0,0,4.166667,0,0)">
            <g transform="matrix(1,0,0,1,0,139.559)">
                <rect x="283.986" y="225.064" width="20.412" height="5.589" style="fill:rgb(128,41,143);"/>
            </g>
        </g>
        <g transform="matrix(4.166667,0,0,4.166667,0,0)">
            <g transform="matrix(0.999958,0.009205,0.009205,-0.999958,228.395622,421.805084)">
                <rect x="-0.028" y="-6.078" width="5.866" height="6.051" style="fill:rgb(128,41,143);"/>
            </g>
        </g>
        <g transform="matrix(4.166667,0,0,4.166667,0,0)">
            <g transform="matrix(1,0,0,1,233.9469,421.5953)">
                <path d="M0,-4.605L-4.737,-4.624L-4.719,-9.091L0.346,-9.071L0.33,-5.152C0.531,-5.068 0.732,-5.032 0.885,-5.034C1.859,-5.052 3.897,-5.537 4.925,-4.583C5.892,-3.685 5.265,-1.616 5.33,-0.661L5.365,-0.139L9.074,0.032C9.588,1.491 9.59,2.92 9.194,4.486L5.093,4.381L5.07,0.248L4.461,0.207C3.561,0.273 1.397,0.806 0.535,-0.16C-0.449,-1.264 0.124,-3.302 0.185,-4.297L0,-4.605Z" style="fill:rgb(128,41,143);fill-rule:nonzero;"/>
            </g>
        </g>
    </g>
</svg>
