<?xml version="1.0" encoding="UTF-8" standalone="no"?>
<!DOCTYPE svg PUBLIC "-//W3C//DTD SVG 1.1//EN" "http://www.w3.org/Graphics/SVG/1.1/DTD/svg11.dtd">
<svg width="100%" height="100%" viewBox="0 0 326 322" version="1.1" xmlns="http://www.w3.org/2000/svg" xmlns:xlink="http://www.w3.org/1999/xlink" xml:space="preserve" xmlns:serif="http://www.serif.com/" style="fill-rule:evenodd;clip-rule:evenodd;stroke-linejoin:round;stroke-miterlimit:2;">
    <g transform="matrix(1,0,0,1,-326.768015,-701.50692)">
        <g transform="matrix(4.166667,0,0,4.166667,0,0)">
            <g transform="matrix(1,0,0,1,135.594,174.6318)">
                <path d="M0,63.939C8.585,63.932 14.946,57.543 14.964,49.264L15.04,15.286C15.057,7.489 9.393,-0.006 1.102,-0.004L-35.979,0.005C-43.704,0.007 -49.675,7.088 -49.709,14.514L-49.86,47.997C-51.699,48.441 -53.537,48.563 -55.986,48.018L-55.946,14.672C-55.932,3.151 -46.579,-6.312 -34.988,-6.27L0.921,-6.139C11.736,-6.1 20.869,2.474 20.894,13.368L20.978,49.948C21.004,60.894 12.548,69.863 1.487,69.951L-36.141,70.251C-36.503,67.722 -36.497,66.172 -36.003,63.966L0,63.939Z" style="fill:rgb(128,41,143);fill-rule:nonzero;"/>
            </g>
        </g>
        <g transform="matrix(4.166667,0,0,4.166667,0,0)">
            <g transform="matrix(1,0,0,1,137.3507,206.5569)">
                <path d="M0,0C0,10.524 -8.531,19.055 -19.055,19.055C-29.579,19.055 -38.11,10.524 -38.11,0C-38.11,-10.524 -29.579,-19.055 -19.055,-19.055C-8.531,-19.055 0,-10.524 0,0M-6.171,0C-6.171,-7.148 -11.965,-12.943 -19.114,-12.943C-26.262,-12.943 -32.057,-7.148 -32.057,0C-32.057,7.149 -26.262,12.944 -19.114,12.944C-11.965,12.944 -6.171,7.149 -6.171,0" style="fill:rgb(128,41,143);fill-rule:nonzero;"/>
            </g>
        </g>
        <g transform="matrix(4.166667,0,0,4.166667,0,0)">
            <g transform="matrix(1,0,0,1,90.46,232.1039)">
                <path d="M0,6.431C0.399,7.019 2.846,6.507 3.186,7.205C3.549,7.948 3.444,9.929 2.724,10.716C2.176,11.315 0.494,10.937 -0.497,10.704C-1.307,10.513 -1.106,8.358 -0.639,7.149C-2.389,6.743 -3.865,6.961 -5.927,7.01L-6.135,1.344C-7.663,1.646 -9.321,1.792 -10.175,1.264C-11.339,0.545 -11.142,-2.962 -9.949,-3.041C-5.806,-3.313 -1.779,-4.884 4.165,-4.182L4.255,1.924L-0.37,2.045C-0.478,3.124 -0.8,5.252 0,6.431" style="fill:rgb(128,41,143);fill-rule:nonzero;"/>
            </g>
        </g>
        <g transform="matrix(4.166667,0,0,4.166667,0,0)">
            <g transform="matrix(0,-1,-1,0,138.785,181.4697)">
                <path d="M-4.545,-4.545C-7.054,-4.545 -9.088,-2.511 -9.088,-0.001C-9.088,2.509 -7.054,4.545 -4.545,4.545C-2.035,4.545 -0.001,2.509 -0.001,-0.001C-0.001,-2.511 -2.035,-4.545 -4.545,-4.545" style="fill:rgb(128,41,143);fill-rule:nonzero;"/>
            </g>
        </g>
        <g transform="matrix(4.166667,0,0,4.166667,0,0)">
            <g transform="matrix(0.999998,0.002001,0.002001,-0.999998,78.443656,238.988919)">
                <rect x="-0.006" y="-6.442" width="5.998" height="6.436" style="fill:rgb(128,41,143);"/>
            </g>
        </g>
    </g>
</svg>
