<?xml version="1.0" encoding="UTF-8" standalone="no"?>
<!DOCTYPE svg PUBLIC "-//W3C//DTD SVG 1.1//EN" "http://www.w3.org/Graphics/SVG/1.1/DTD/svg11.dtd">
<svg width="100%" height="100%" viewBox="0 0 294 308" version="1.1" xmlns="http://www.w3.org/2000/svg" xmlns:xlink="http://www.w3.org/1999/xlink" xml:space="preserve" xmlns:serif="http://www.serif.com/" style="fill-rule:evenodd;clip-rule:evenodd;stroke-linejoin:round;stroke-miterlimit:2;">
    <g transform="matrix(1,0,0,1,-1612.454981,-724.13125)">
        <g transform="matrix(4.166667,0,0,4.166667,0,0)">
            <g transform="matrix(1,0,0,1,428.4785,216.9775)">
                <path d="M0,-2.734L-0.144,22.203L-13.543,22.399L-13.541,-21.458L-0.61,-21.683L-0.345,-15.111C5.072,-23.354 16.648,-25.16 24.147,-18.472C26.898,-16.018 28.863,-12.123 28.885,-8.37L29.063,22.328L15.794,22.426L15.768,-2.32C15.763,-7.267 12.955,-10.879 8.371,-10.922C3.994,-10.964 0.031,-8.001 0,-2.734" style="fill:rgb(128,41,143);fill-rule:nonzero;"/>
            </g>
        </g>
        <g transform="matrix(4.166667,0,0,4.166667,0,0)">
            <g transform="matrix(1,0,0,1,399.1942,197.1307)">
                <path d="M0,34.004C-0.369,32.535 -0.208,31.175 -0.111,29.298L-6.838,28.997L-6.808,-1.781L6.498,-1.798L6.592,35.332C4.136,35.802 2.413,34.505 0,34.004" style="fill:rgb(128,41,143);fill-rule:nonzero;"/>
            </g>
        </g>
        <g transform="matrix(4.166667,0,0,4.166667,0,0)">
            <g transform="matrix(0,-1,-1,0,399.2043,173.792)">
                <path d="M-7.616,-7.616C-11.823,-7.616 -15.233,-4.205 -15.233,0C-15.233,4.207 -11.823,7.616 -7.616,7.616C-3.409,7.616 0,4.207 0,0C0,-4.205 -3.409,-7.616 -7.616,-7.616" style="fill:rgb(128,41,143);fill-rule:nonzero;"/>
            </g>
        </g>
        <g transform="matrix(4.166667,0,0,4.166667,0,0)">
            <g transform="matrix(1,0,0,1,402.0228,240.7765)">
                <path d="M0,-3.69C-1.18,1.246 2.431,5.323 -2.385,4.486C-3.764,4.247 -4.605,3.16 -3.823,0.698L-9.357,0.661L-9.495,-4.695C-10.861,-4.615 -12.862,-4.28 -13.727,-5.141C-14.409,-5.818 -14.167,-7.814 -13.872,-8.98C-10.57,-8.777 -7.561,-8.548 -4.027,-9.013L-3.622,-4.277C-2.291,-4.844 0,-3.69 0,-3.69" style="fill:rgb(128,41,143);fill-rule:nonzero;"/>
            </g>
        </g>
        <g transform="matrix(4.166667,0,0,4.166667,0,0)">
            <g transform="matrix(0.005222,0.999986,0.999986,-0.005222,392.98565,247.34298)">
                <rect x="-5.935" y="-5.966" width="6.129" height="5.773" style="fill:rgb(128,41,143);"/>
            </g>
        </g>
    </g>
</svg>
