<?xml version="1.0" encoding="UTF-8" standalone="no"?>
<!DOCTYPE svg PUBLIC "-//W3C//DTD SVG 1.1//EN" "http://www.w3.org/Graphics/SVG/1.1/DTD/svg11.dtd">
<svg width="100%" height="100%" viewBox="0 0 313 337" version="1.1" xmlns="http://www.w3.org/2000/svg" xmlns:xlink="http://www.w3.org/1999/xlink" xml:space="preserve" xmlns:serif="http://www.serif.com/" style="fill-rule:evenodd;clip-rule:evenodd;stroke-linejoin:round;stroke-miterlimit:2;">
    <g transform="matrix(1,0,0,1,-2886.377812,-1460.952569)">
        <g transform="matrix(4.166667,0,0,4.166667,0,0)">
            <g transform="matrix(1,0,0,1,712.2889,395.041)">
                <path d="M0,-13.836C-0.142,-10.83 -7.195,-14.734 -8.08,-13.407C-8.502,-12.775 -8.46,-11.662 -7.361,-11.122L-2.924,-8.941C4.406,-5.336 -5.161,7.6 -15.222,11.434L-7.208,14.637C-5.866,15.173 -5.629,17.292 -5.255,18.907C-0.053,17.808 4.715,18.655 8.831,21.852C14.19,26.014 21.183,26.095 26.706,22.204C29.023,20.572 31.23,19.184 34.572,18.745L34.611,23.359L27.948,26.84C20.69,30.632 12.391,30.498 5.996,25.383C-1.053,19.745 -8.28,26.714 -9.594,18.19C-14.309,16.359 -19.909,15.261 -19.541,10.912C-19.423,9.523 -18.592,8.337 -17.027,7.694C-11.255,5.32 -6.428,0.785 -4.456,-5.104C-6.856,-6.414 -9.26,-7.068 -11.074,-8.713C-13.278,-10.711 -13.11,-13.733 -11.535,-15.697C-9.856,-17.788 -7.188,-18.389 -4.084,-17.314C-3.938,-21.075 -4.675,-24.837 -3.599,-28.718C-0.919,-38.385 8.293,-44.468 17.934,-44.412C27.837,-44.354 37.057,-37.995 39.574,-28.079L40.009,-17.425C43.418,-18.442 46.811,-17.617 48.127,-15.021C49.606,-12.101 48.177,-8.784 45.107,-7.211L40.327,-4.762C42.283,1.199 47.111,5.536 52.894,7.724C54.794,8.443 55.652,10.091 55.218,12.065C54.887,13.57 53.584,14.962 51.153,16.12C52.323,17.203 53.451,16.758 55.212,16.715L55.416,23.686C54.365,24.073 51.761,24.403 51.213,23.567L49.002,20.199L48.338,16.396C46.454,15.376 44.597,15.832 42.617,15.469L51.027,11.504C44.239,8.775 38.871,3.778 36.447,-3.046C34.254,-9.217 42.705,-9.408 44.276,-12.194C44.734,-13.006 43.585,-13.786 42.937,-13.74C40.779,-13.586 35.967,-11.117 35.539,-14.071C34.852,-18.817 36.471,-23.675 34.872,-28.213C31.92,-36.589 22.917,-41.028 14.308,-39.43C7.469,-38.16 2.054,-33.408 0.604,-26.649L0,-13.836Z" style="fill:rgb(128,41,143);fill-rule:nonzero;"/>
            </g>
        </g>
        <g transform="matrix(4.166667,0,0,4.166667,0,0)">
            <g transform="matrix(1,0,0,1,761.1818,420.2141)">
                <path d="M0,-0.071C1.239,1.233 0.691,3.145 0.448,4.746L-9.29,4.835L-9.122,-4.413C-7.153,-4.906 -5.544,-4.872 -3.651,-4.433C-3.304,-3.159 -3.332,-2.089 -3.42,-0.53L0,-0.071Z" style="fill:rgb(128,41,143);fill-rule:nonzero;"/>
            </g>
        </g>
        <g transform="matrix(4.166667,0,0,4.166667,0,0)">
            <g transform="matrix(0.999958,0.009153,0.009153,-0.999958,762.150462,431.284529)">
                <rect x="0.027" y="-0.026" width="5.571" height="6.008" style="fill:rgb(128,41,143);"/>
            </g>
        </g>
        <g transform="matrix(4.166667,0,0,4.166667,0,0)">
            <g transform="matrix(0.999951,0.009907,0.009907,-0.999951,751.713829,425.903491)">
                <rect x="-0.02" y="-3.939" width="4.441" height="3.917" style="fill:rgb(128,41,143);"/>
            </g>
        </g>
    </g>
</svg>
