<?xml version="1.0" encoding="UTF-8" standalone="no"?>
<!DOCTYPE svg PUBLIC "-//W3C//DTD SVG 1.1//EN" "http://www.w3.org/Graphics/SVG/1.1/DTD/svg11.dtd">
<svg width="100%" height="100%" viewBox="0 0 290 340" version="1.1" xmlns="http://www.w3.org/2000/svg" xmlns:xlink="http://www.w3.org/1999/xlink" xml:space="preserve" xmlns:serif="http://www.serif.com/" style="fill-rule:evenodd;clip-rule:evenodd;stroke-linejoin:round;stroke-miterlimit:2;">
    <g transform="matrix(1,0,0,1,-2895.160316,-689.44)">
        <g transform="matrix(4.166667,0,0,4.166667,0,0)">
            <g transform="matrix(1,0,0,1,704.855,177.4316)">
                <path d="M0,58.745C-0.909,58.875 -2.823,59.208 -3.37,58.449C-4.28,57.189 -3.773,55.546 -3.96,54.129C-4.951,54.209 -7.41,54.568 -8.065,53.769C-11.554,45.116 -10.352,35.532 -4.561,28.141C0.59,21.569 9.297,17.646 18.505,18.37L18.536,31.43C12.106,30.382 6.764,33.499 4.289,38.762C1.797,44.059 3.215,50.452 7.968,54.236C11.721,56.976 16.123,57.23 20.892,55.419C23.771,53.873 27.768,50.033 27.792,45.294L28.071,-11.784L40.344,-11.966C40.593,-1.384 48.716,6.839 59.444,6.779L59.559,18.773C52.811,19.404 46.649,17.049 40.771,12.822L40.439,47.076C40.36,55.179 34.625,62.083 28.853,65.635C21.026,70.454 12.419,70.711 4.694,66.9L4.362,61.906C2.959,62.152 1.731,62.285 0.728,61.851C-0.01,61.533 -0.162,60.021 0,58.745" style="fill:rgb(128,41,143);fill-rule:nonzero;"/>
            </g>
        </g>
    </g>
</svg>
