<?xml version="1.0" encoding="UTF-8" standalone="no"?>
<!DOCTYPE svg PUBLIC "-//W3C//DTD SVG 1.1//EN" "http://www.w3.org/Graphics/SVG/1.1/DTD/svg11.dtd">
<svg width="100%" height="100%" viewBox="0 0 328 338" version="1.1" xmlns="http://www.w3.org/2000/svg" xmlns:xlink="http://www.w3.org/1999/xlink" xml:space="preserve" xmlns:serif="http://www.serif.com/" style="fill-rule:evenodd;clip-rule:evenodd;stroke-linejoin:round;stroke-miterlimit:2;">
    <g transform="matrix(1,0,0,1,-1592.928439,-1447.856078)">
        <g transform="matrix(4.166667,0,0,4.166667,0,0)">
            <g transform="matrix(1,0,0,1,454.8297,356.707)">
                <path d="M0,60.744C0.721,60.952 0.897,63.981 0.429,65.116C-0.349,67.009 -4.394,63.897 -9.353,65.678L-9.467,58.758C-20.897,68.173 -35.922,70.681 -49.869,64.55C-61.774,59.317 -70.859,47.627 -72.316,33.46C-74.599,11.262 -58.082,-8.046 -35.513,-9.178C-20.396,-9.937 -6.514,-0.691 -0.179,12.142C6.887,26.456 4.427,43.261 -5.792,55.186L-2.405,55.527L-2.768,60.855C-1.383,60.514 -0.666,60.552 0,60.744M-30.426,16.123C-23.308,13.68 -18.027,10.098 -13.479,4.657C-21.211,-2.61 -32.326,-5.116 -42.515,-2.127L-30.426,16.123ZM-36.109,18.22L-48.508,-0.183C-57.228,4.429 -63.47,11.897 -65.823,21.835C-55.77,22.488 -45.985,20.887 -36.109,18.22M-24.71,28.073C-16.631,26.904 -9.389,27.514 -2.254,29.194C-2.139,21.317 -4.725,14.441 -9.324,8.9C-14.661,14.664 -20.685,18.748 -27.899,21.204C-26.746,23.841 -26.211,26.052 -24.71,28.073M-30.825,29.646C-31.772,26.703 -32.385,25.246 -33.567,23.352C-44.449,26.276 -54.963,28.182 -66.522,28.035C-67.121,36.244 -64.654,44.488 -58.707,51.084C-52.029,40.623 -42.8,32.796 -30.825,29.646M-2.447,34.697C-9.461,32.956 -16.147,32.345 -22.956,33.347C-20.116,41.458 -18.271,48.907 -17.089,57.133C-9.081,51.823 -3.582,44.306 -2.447,34.697M-22.514,60.078C-23.919,51.257 -25.639,42.936 -28.789,34.756C-40.093,37.74 -48.997,45.333 -54.539,55.127C-45.007,62.434 -33.238,63.908 -22.514,60.078" style="fill:rgb(128,41,143);fill-rule:nonzero;"/>
            </g>
        </g>
        <g transform="matrix(4.166667,0,0,4.166667,0,0)">
            <g transform="matrix(0.007998,0.999968,0.999968,-0.007998,461.239533,428.200249)">
                <rect x="-5.567" y="-5.613" width="5.876" height="5.306" style="fill:rgb(128,41,143);"/>
            </g>
        </g>
        <g transform="matrix(4.166667,0,0,4.166667,0,0)">
            <g transform="matrix(0.017797,0.999842,0.999842,-0.017797,461.119833,416.610993)">
                <rect x="-4.817" y="-4.904" width="5.001" height="4.724" style="fill:rgb(128,41,143);"/>
            </g>
        </g>
        <g transform="matrix(4.166667,0,0,4.166667,0,0)">
            <g transform="matrix(0,-1,-1,0,449.2927,422.5132)">
                <path d="M-1.872,-1.872C-2.905,-1.872 -3.743,-1.034 -3.743,-0.001C-3.743,1.033 -2.905,1.872 -1.872,1.872C-0.839,1.872 -0.001,1.033 -0.001,-0.001C-0.001,-1.034 -0.839,-1.872 -1.872,-1.872" style="fill:rgb(128,41,143);fill-rule:nonzero;"/>
            </g>
        </g>
    </g>
</svg>
