<?xml version="1.0" encoding="UTF-8" standalone="no"?>
<!DOCTYPE svg PUBLIC "-//W3C//DTD SVG 1.1//EN" "http://www.w3.org/Graphics/SVG/1.1/DTD/svg11.dtd">
<svg width="100%" height="100%" viewBox="0 0 322 330" version="1.1" xmlns="http://www.w3.org/2000/svg" xmlns:xlink="http://www.w3.org/1999/xlink" xml:space="preserve" xmlns:serif="http://www.serif.com/" style="fill-rule:evenodd;clip-rule:evenodd;stroke-linejoin:round;stroke-miterlimit:2;">
    <g transform="matrix(1,0,0,1,-2237.189897,-1451.441982)">
        <g transform="matrix(4.166667,0,0,4.166667,0,0)">
            <g transform="matrix(1,0,0,1,580.9208,357.9207)">
                <path d="M0,59.731C17.407,57.039 28.746,41.537 26.992,24.637C25.282,8.162 10.445,-4.858 -6.647,-3.581C-17.571,-2.766 -26.747,4.118 -31.351,12.35C-37.229,22.859 -36.482,34.344 -31.208,44.268C-30.635,45.345 -31.062,46.997 -31.527,47.693C-32.412,49.017 -36.657,48.669 -37.079,48.019C-37.263,47.736 -36.959,46.894 -36.929,46.381C-43.087,34.554 -43.337,21.018 -36.228,8.859C-30.335,-1.222 -19.001,-8.904 -5.942,-9.531C17.027,-10.634 35.094,9.345 33.037,31.59C30.916,54.518 8.876,70.365 -13.776,64.717L-23.188,61.382C-24.892,48.723 -16.33,62.255 0,59.731" style="fill:rgb(128,41,143);fill-rule:nonzero;"/>
            </g>
        </g>
        <g transform="matrix(4.166667,0,0,4.166667,0,0)">
            <g transform="matrix(1,0,0,1,586.0142,381.4392)">
                <path d="M0,9.466C2.77,10.644 5.643,11.503 7.829,13.139C10.198,14.911 8.736,18.482 6.838,19.959C3.737,22.371 0.749,22.898 -2.954,21.863C-13.921,18.796 -22.737,11.096 -26.692,0.316C-27.937,-3.08 -27.412,-6.619 -25.556,-9.721C-24.304,-11.813 -20.126,-13.432 -18.418,-11.219L-15.087,-2.75C-16.247,-0.755 -17.393,0.151 -18.937,1.62C-15.856,7.669 -10.756,12.763 -3.928,14.3L0,9.466Z" style="fill:rgb(128,41,143);fill-rule:nonzero;"/>
            </g>
        </g>
        <g transform="matrix(4.166667,0,0,4.166667,0,0)">
            <g transform="matrix(1,0,0,1,542.8262,411.3847)">
                <path d="M0,15.76C-2.022,16.158 -3.711,16.216 -5.57,15.803C-5.798,14.172 -6.281,11.859 -5.354,10.528C-4.355,9.673 -1.997,10.045 -0.222,10.276C0.148,8.448 -0.014,6.945 -0.125,4.773C-1.084,4.863 -2.851,5.315 -3.882,4.457C-4.724,3.756 -4.484,1.469 -4.113,0.413C-1.732,0.801 -0.264,-0.456 1.642,-0.368L9.459,-0.006C9.785,2.093 9.726,3.429 9.272,5.209L5.491,5.465L5.152,9.752L0.148,10.154L0,15.76Z" style="fill:rgb(128,41,143);fill-rule:nonzero;"/>
            </g>
        </g>
        <g transform="matrix(4.166667,0,0,4.166667,0,0)">
            <g transform="matrix(0.999968,0.00802,0.00802,-0.999968,547.891323,421.347398)">
                <rect x="-0.016" y="-4.065" width="3.866" height="4.049" style="fill:rgb(128,41,143);"/>
            </g>
        </g>
    </g>
</svg>
