<?xml version="1.0" encoding="UTF-8" standalone="no"?>
<!DOCTYPE svg PUBLIC "-//W3C//DTD SVG 1.1//EN" "http://www.w3.org/Graphics/SVG/1.1/DTD/svg11.dtd">
<svg width="100%" height="100%" viewBox="0 0 307 316" version="1.1" xmlns="http://www.w3.org/2000/svg" xmlns:xlink="http://www.w3.org/1999/xlink" xml:space="preserve" xmlns:serif="http://www.serif.com/" style="fill-rule:evenodd;clip-rule:evenodd;stroke-linejoin:round;stroke-miterlimit:2;">
    <g transform="matrix(1,0,0,1,-2250.732917,-682.98125)">
        <g transform="matrix(4.166667,0,0,4.166667,0,0)">
            <g transform="matrix(1,0,0,1,584.6169,211.398)">
                <path d="M0,-10.022L28.403,27.969L4.898,28.066L-12.727,4.51L-32.762,28.13L-42.933,27.727L-17.554,-1.545L-44.441,-38.101L-21.096,-38.152L-4.59,-15.948L11.484,-34.519C13.155,-33.55 12.972,-31.795 12.332,-30.023L16.748,-29.26L0,-10.022ZM15.342,21.395L-24.008,-31.637L-31.967,-31.536L7.794,21.488L15.342,21.395Z" style="fill:rgb(128,41,143);fill-rule:nonzero;"/>
            </g>
        </g>
        <g transform="matrix(4.166667,0,0,4.166667,0,0)">
            <g transform="matrix(1,0,0,1,611.0175,171.0541)">
                <path d="M0,6.482C0.792,7.09 0.564,9.182 0.281,10.277L-8.269,10.367C-8.678,8.88 -8.605,7.876 -8.446,6.269L-13.271,5.925L-13.197,-3.325C-11.858,-3.555 -9.33,-3.885 -8.559,-2.907C-7.53,-1.6 -8.423,0.438 -8.568,1.639C-6.938,1.507 -5.209,1.081 -4.147,1.846C-3.337,2.767 -3.831,4.647 -3.886,5.945C-2.671,6.011 -1.246,5.526 0,6.482" style="fill:rgb(128,41,143);fill-rule:nonzero;"/>
            </g>
        </g>
        <g transform="matrix(4.166667,0,0,4.166667,0,0)">
            <g transform="matrix(-0.999997,0.002623,0.002623,0.999997,607.906075,169.69197)">
                <rect x="-5.712" y="-5.762" width="5.72" height="5.754" style="fill:rgb(128,41,143);"/>
            </g>
        </g>
    </g>
</svg>
