<?xml version="1.0" encoding="UTF-8" standalone="no"?>
<!DOCTYPE svg PUBLIC "-//W3C//DTD SVG 1.1//EN" "http://www.w3.org/Graphics/SVG/1.1/DTD/svg11.dtd">
<svg width="100%" height="100%" viewBox="0 0 345 259" version="1.1" xmlns="http://www.w3.org/2000/svg" xmlns:xlink="http://www.w3.org/1999/xlink" xml:space="preserve" xmlns:serif="http://www.serif.com/" style="fill-rule:evenodd;clip-rule:evenodd;stroke-linejoin:round;stroke-miterlimit:2;">
    <g transform="matrix(1,0,0,1,-308.69125,-1491.695781)">
        <g transform="matrix(4.166667,0,0,4.166667,0,0)">
            <g transform="matrix(1,0,0,1,94.5592,365.2548)">
                <path d="M0,40.408C-2.236,41.101 -3.984,40.508 -4.813,38.575C-5.964,38.695 -6.792,38.66 -7.878,38.25L-7.652,33.451L-14.789,33.431C-15.777,23.541 -15.906,13.825 -14.484,3.893C-13.741,-1.301 -9.749,-5.633 -4.299,-6.105C13.986,-7.687 32.016,-7.534 50.352,-6.214C55.779,-5.824 60.234,-2.216 61.053,3.289C62.733,14.57 62.417,25.876 61.047,37.25C60.448,42.229 56.586,45.992 51.34,46.487C34.331,48.095 17.403,47.724 0.139,46.957L0,40.408ZM35.676,20.163L15.262,8.46L15.303,31.594L35.676,20.163Z" style="fill:rgb(128,41,143);fill-rule:nonzero;"/>
            </g>
        </g>
        <g transform="matrix(4.166667,0,0,4.166667,0,0)">
            <g transform="matrix(1,0,0,1,89.2965,404.9936)">
                <path d="M0,12.064C-0.383,13.154 -3.044,13.072 -3.673,12.565C-4.361,12.011 -4.512,10.45 -3.938,8.896L-9.339,8.737C-9.662,6.87 -9.513,5.575 -9.227,3.545L-13.634,3.575C-14.121,2.06 -14.247,0.791 -13.93,-1.09L-3.793,-1L-3.61,4.022C-2.217,3.614 -0.275,3.664 0.225,4.409C0.399,6.764 0.876,9.577 0,12.064" style="fill:rgb(128,41,143);fill-rule:nonzero;"/>
            </g>
        </g>
        <g transform="matrix(4.166667,0,0,4.166667,0,0)">
            <g transform="matrix(0.999911,0.013323,0.013323,-0.999911,74.046434,420.016006)">
                <rect x="0.04" y="-0.039" width="5.854" height="6.043" style="fill:rgb(128,41,143);"/>
            </g>
        </g>
    </g>
</svg>
